<svg width="24" height="29" viewBox="0 0 24 29" fill="none" xmlns="http://www.w3.org/2000/svg">
<path d="M20.7643 16.9833C22.0085 16.2131 21.9756 14.3723 22.0188 13.0536C22.0842 11.0605 22.3912 8.85215 21.4784 6.99703C20.4485 4.90407 18.2164 3.80378 16.051 3.29127C14.4451 2.91118 12.9648 2.6003 11.3184 2.6003C10.3252 2.6003 9.3833 2.59307 8.42329 2.88595C7.41741 3.19283 6.46237 3.73284 5.62853 4.37211C4.96678 4.87946 4.51936 5.77488 3.98024 6.40642C3.68329 6.75428 3.52199 7.16268 3.35489 7.58378C3.1051 8.21326 2.83459 8.83692 2.5983 9.4714C1.99342 11.0956 1.92514 12.8932 2.01927 14.6131C2.14425 16.8969 3.41236 19.043 4.62875 20.9284C5.27721 21.9335 5.99311 22.9552 7.03749 23.5842C8.02324 24.1779 9.15846 24.2699 10.2492 24.5569C11.5212 24.8917 12.779 25.1128 14.0939 25.1128" stroke="#415EFF" stroke-linecap="round"/>
<path d="M13.2601 25.0433C13.8966 25.1452 14.8547 25.0873 15.414 25.4602" stroke="#415EFF" stroke-linecap="round"/>
<path d="M18.2629 26.0856C17.8193 25.3861 16.9755 24.9172 16.1784 25.3367C16.1112 25.372 15.8252 25.5025 15.9082 25.5606C16.2065 25.7694 16.6154 25.9102 16.9427 26.0701C17.2066 26.1991 17.6715 26.433 17.9849 26.433" stroke="#415EFF" stroke-linecap="round"/>
<path d="M14.3023 23.9316C15.0128 24.3579 15.5778 24.924 16.217 25.4448C16.5151 25.6877 16.8823 25.8862 17.1511 26.1551" stroke="#415EFF" stroke-linecap="round"/>
<path d="M14.3023 23.5147C14.4368 23.4169 14.7151 23.3145 14.7887 23.1673" stroke="#415EFF" stroke-linecap="round"/>
<path d="M14.4413 23.5147C14.7108 23.2452 14.9362 22.9503 15.2056 22.6809" stroke="#415EFF" stroke-linecap="round"/>
<path d="M15.3446 22.8893C16.0734 23.5337 16.811 24.1473 17.4985 24.8349C17.6766 25.0129 17.9435 25.509 18.1239 25.5992" stroke="#415EFF" stroke-linecap="round"/>
<path d="M14.8582 23.1673C14.3603 23.4895 13.9216 23.832 13.4377 24.1671C13.1749 24.349 12.9153 24.5556 12.6347 24.6959" stroke="#415EFF" stroke-linecap="round"/>
<path d="M14.0244 24.14C12.3942 24.4894 14.9992 25.3591 15.2056 25.6687" stroke="#415EFF" stroke-linecap="round"/>
<path d="M18.0544 25.2518C18.3238 25.5803 18.655 26.3232 19.1314 26.4291C19.2573 26.4571 19.6092 26.6113 19.6487 26.7495C19.7425 27.0778 18.9463 27.4752 18.7145 27.4752C18.4831 27.4752 18.3201 27.3608 18.1239 27.3363C18.0566 27.3278 17.6433 27.038 17.6375 26.9888C17.6194 26.8349 17.5033 26.8219 17.4445 26.7109C17.2868 26.4131 17.961 26.7236 18.0081 26.7495C18.167 26.8369 18.2854 26.9888 18.4713 26.9888C18.5586 26.9888 18.803 26.9519 18.6643 26.7958C18.5417 26.6579 18.5472 27.2229 18.3671 27.2629C17.9674 27.3517 17.692 27.1945 17.3982 26.9541C17.185 26.7797 16.9849 26.5697 16.6995 26.5063C16.3374 26.4258 15.9471 26.4951 15.5839 26.4291C14.7818 26.2833 13.9112 26.1 13.1366 25.8617C12.854 25.7747 12.7737 25.7816 12.7737 25.4602C12.7737 25.0845 12.8246 24.8397 12.9127 24.4875" stroke="#415EFF" stroke-linecap="round"/>
<path d="M18.3324 26.0856C18.0496 25.3432 17.8311 24.7042 17.2747 24.086C17.0185 23.8014 16.7101 23.6497 16.4177 23.4105C15.9551 23.032 15.4798 22.7903 15.0975 22.2987C14.5247 21.5623 13.9423 20.925 13.6075 20.0251C13.5161 19.7794 13.3765 19.0292 13.3334 19.2878C13.2633 19.7085 13.3991 20.117 13.3991 20.5269C13.3991 20.8628 13.3991 21.1986 13.3991 21.5344C13.3991 21.7629 13.3223 22.1676 13.4338 22.3682C13.6323 22.7256 13.6075 23.3516 13.6075 23.7579C13.6075 24.0214 13.7877 23.5802 13.8005 23.5147C13.8553 23.2351 13.8519 22.9582 13.9009 22.6809C14.016 22.0285 14.3553 22.5502 14.2329 22.6114" stroke="#415EFF" stroke-linecap="round"/>
<path d="M13.677 21.4302C13.7698 22.0335 13.8854 22.6961 13.8854 23.3062" stroke="#415EFF" stroke-linecap="round"/>
<path d="M13.538 23.8621C12.9677 23.6395 12.5587 23.2225 11.9553 23.0438C11.4163 22.884 10.8213 22.8641 10.2723 22.7349C8.91342 22.4152 7.43086 22.2714 6.36581 21.2063C5.71715 20.5577 5.32609 19.8063 4.92211 18.9983C4.37401 17.9021 3.87885 16.8058 3.42436 15.6631C2.90353 14.3536 2.62133 13.0559 2.36667 11.6871C2.22286 10.9141 2.35123 9.99099 2.35123 9.20119" stroke="#415EFF" stroke-linecap="round"/>
<path d="M2.76815 13.3702C2.44886 13.8491 2.54728 14.492 2.56356 15.0455C2.59345 16.0619 2.93379 16.9562 3.36647 17.8634C3.95756 19.1028 4.5696 20.1049 5.54361 21.0789C6.24309 21.7784 6.85645 22.4996 7.69372 23.0515C8.16503 23.3621 8.71745 23.3661 9.22621 23.5842C9.6638 23.7717 10.1017 23.8621 10.5773 23.8621C10.7799 23.8621 10.9224 23.91 11.1061 23.9316C11.1455 23.9362 11.2072 23.9808 11.1331 23.9972C10.9407 24.04 10.6842 23.8037 10.5502 23.7077C9.95585 23.2815 9.29465 22.8199 8.53524 22.8199C8.48027 22.8199 8.64121 22.8493 8.69351 22.8662C9.08757 22.9937 9.45387 23.2119 9.81682 23.4066C10.3822 23.71 10.9642 24.0059 11.5925 24.1555C11.8403 24.2145 12.0991 24.1965 12.3414 24.279C12.398 24.2983 12.8135 24.418 12.6888 24.418C12.5497 24.418 11.7232 24.3179 11.9399 24.2095" stroke="#415EFF" stroke-linecap="round"/>
<path d="M12.1484 23.5842C12.4734 23.6298 12.8711 23.683 12.3221 23.5494C12.0896 23.4929 11.8564 23.4444 11.6234 23.3912C11.5254 23.3688 11.1034 23.3757 11.191 23.3757C11.3539 23.3757 12.1772 23.4394 11.9785 23.4452C11.5504 23.4578 11.1211 23.3757 10.6892 23.3757" stroke="#415EFF" stroke-linecap="round"/>
<path d="M2.97659 15.3852C2.80286 14.4513 2.939 13.4671 2.87237 12.5209C2.83023 11.9226 2.83763 11.3255 2.83763 10.726C2.83763 9.84548 3.00044 9.09845 3.37805 8.29791C3.87317 7.24826 4.44886 6.11224 5.54747 5.53402C6.75277 4.89965 7.81667 3.98206 9.19147 3.72746C11.0749 3.37868 13.0274 3.398 14.9277 3.50357C15.3406 3.52651 15.7167 3.70595 16.1089 3.81625C16.6373 3.96487 17.3895 4.22695 17.8151 4.58442C18.4317 5.10236 19.2556 5.29808 19.8996 5.78108C20.2989 6.08057 20.6327 6.47737 21.0267 6.76928C21.4645 7.09351 21.4763 7.53105 21.6289 7.98909C21.8117 8.53746 21.9455 9.16875 21.9455 9.74161C21.9455 10.42 22.0734 11.0942 22.0111 11.7798C21.9759 12.1672 21.8205 12.5467 21.8065 12.9378C21.7941 13.2855 21.6166 13.5925 21.5981 13.926C21.5738 14.3634 21.4591 14.7688 21.4591 15.2115C21.4591 15.5055 21.2894 15.9125 21.1117 16.1495" stroke="#415EFF" stroke-linecap="round"/>
<path d="M9.4385 22.9588C8.22405 22.9588 7.48563 21.7513 6.99502 20.7701C6.23464 19.2494 6.36909 17.012 6.89851 15.4238C6.91481 15.3749 7.03103 15.0002 6.93711 15.2115C6.78956 15.5435 6.6701 15.8651 6.5511 16.2112C6.32585 16.8665 6.16619 17.5455 6.04927 18.234C5.92103 18.9892 5.89487 21.293 5.89487 20.5269" stroke="#415EFF" stroke-linecap="round"/>
<path d="M2.9071 6.14392C2.87696 7.53022 2.35026 8.85169 2.42844 10.2589C2.47578 11.1111 2.62917 11.9606 2.62917 12.8143" stroke="#415EFF" stroke-linecap="round"/>
<path d="M2.55969 17.1917C2.03747 16.539 1.30254 16.0787 0.753129 15.4508C0.484471 15.1438 0.881791 15.3272 1.0465 15.4006C1.33433 15.5289 1.64573 15.6269 1.92662 15.7673C2.11894 15.8635 2.46187 15.9539 2.55969 16.1495" stroke="#415EFF" stroke-linecap="round"/>
<path d="M3.32401 14.4124C3.34461 13.176 3.53103 11.9081 3.67142 10.6796C3.76445 9.86561 3.95325 9.0562 4.33151 8.32879C4.86008 7.31231 5.59827 6.2575 6.52023 5.57262C7.48751 4.85407 8.95448 4.89323 10.1025 4.89323C10.5151 4.89323 10.473 4.93505 10.1025 4.79287C9.69249 4.63555 9.26773 4.4705 8.84405 4.35281C8.37257 4.22184 7.87962 4.10292 7.42351 3.92047" stroke="#415EFF" stroke-linecap="round"/>
<path d="M5.89487 20.11C5.10903 19.1708 4.27603 18.0137 3.84126 16.8675C3.53865 16.0697 3.36663 15.3271 3.32786 14.4742C3.27151 13.2344 3.4976 12.0855 3.67142 10.8688" stroke="#415EFF" stroke-linecap="round"/>
<path d="M13.0516 3.29512C14.8279 3.55256 16.4999 4.67152 17.3055 6.28289C17.3742 6.42011 17.5426 6.84891 17.4831 6.70751C17.298 6.26788 17.1555 5.77057 17.0276 5.31013C16.8832 4.79015 16.4852 4.2968 16.1089 3.92047" stroke="#415EFF" stroke-linecap="round"/>
<path d="M9.43851 3.01719C10.0642 2.87499 10.6364 2.57176 11.2489 2.38799C11.6896 2.25577 12.1691 1.91962 12.5575 1.68157C12.6541 1.62239 12.8038 1.54415 12.8741 1.45382C13.0486 1.22942 12.575 1.99895 12.4803 2.11391C12.1545 2.5095 11.8199 2.82516 11.384 3.08668" stroke="#415EFF" stroke-linecap="round"/>
<path d="M19.722 5.10168C20.6002 5.40029 20.9978 6.1178 21.6714 6.66505C22.3301 7.20028 22.7098 8.14345 22.7098 8.98888C22.7098 9.387 22.8398 9.78894 22.8487 10.1894C22.8596 10.6796 22.8577 11.1737 22.8487 11.664C22.8332 12.5175 22.2389 13.0534 21.9455 13.7871" stroke="#415EFF" stroke-linecap="round"/>
<path d="M21.1812 14.2735C20.8149 15.3723 20.195 16.7857 19.1932 17.462C18.6022 17.8609 18.0344 18.2203 17.3943 18.5158C16.9395 18.7257 17.2653 18.6073 17.4986 18.5814C17.879 18.5391 18.54 18.3105 18.7531 17.9908C18.8814 17.7983 19.1587 17.6804 19.3128 17.5006C19.5022 17.2796 19.7669 17.159 19.9961 16.9872C20.2874 16.7687 20.519 16.4865 20.7643 16.219" stroke="#415EFF" stroke-linecap="round"/>
<path d="M20.3474 16.7053C20.2008 17.2054 19.9999 17.7767 19.9999 18.3035C19.9999 18.4051 19.9999 18.5068 19.9999 18.6084C19.9999 19.0012 20.2332 17.8555 20.4014 17.5005C20.6698 16.9339 20.9392 16.3631 21.2198 15.8021C21.7018 14.8381 22.2388 13.795 22.5013 12.7448" stroke="#415EFF" stroke-linecap="round"/>
<path d="M22.9182 11.2857C22.9182 12.6673 22.4537 13.8144 21.8798 15.0339C21.6518 15.5186 21.3619 16.0522 21.0422 16.4815C20.9061 16.6642 20.8296 16.9506 20.6253 17.0528" stroke="#415EFF" stroke-linecap="round"/>
<path d="M12.9127 22.7504C11.4971 22.4807 10.1011 22.3894 8.9174 21.4688C8.43617 21.0945 7.82395 20.9318 7.39263 20.4613C7.04302 20.0799 6.59318 19.7649 6.17282 19.4847" stroke="#415EFF" stroke-linecap="round"/>
<path d="M8.04886 21.6387C8.44989 22.1014 8.93285 22.4708 9.52344 22.6423C9.78769 22.719 10.617 22.7504 10.3418 22.7504" stroke="#415EFF" stroke-linecap="round"/>
<path d="M6.03384 19.3457C5.4949 18.9864 4.81382 18.6973 4.43573 18.1491C4.04034 17.5757 3.74459 16.7457 3.54789 16.08C3.11644 14.6197 3.25452 13.1912 3.25452 11.7026" stroke="#415EFF" stroke-linecap="round"/>
<path d="M5.89488 18.6509C5.54333 18.3077 5.20275 18.014 4.92211 17.6086C4.64558 17.2092 4.49917 16.7955 4.29677 16.3618C3.78911 15.274 3.60194 14.2595 3.60194 13.0613C3.60194 11.1039 3.57923 9.16151 4.36625 7.32513" stroke="#415EFF" stroke-linecap="round"/>
<path d="M12.9821 21.6387C11.827 21.8922 10.7161 21.9384 9.56202 21.5537C8.70664 21.2686 7.83525 21.0811 7.00659 20.8049" stroke="#415EFF" stroke-linecap="round"/>
<path d="M12.8432 21.8471C11.0567 21.8471 9.48586 21.3327 7.85584 20.6659C7.19128 20.394 6.66103 19.7983 6.03384 19.4847" stroke="#415EFF" stroke-linecap="round"/>
<path d="M12.0789 21.7081C10.6962 21.1671 9.19307 20.795 7.97936 19.9016C7.59611 19.6195 7.217 19.3375 6.83675 19.0523C6.65677 18.9174 6.43599 18.8372 6.31177 18.6509" stroke="#415EFF" stroke-linecap="round"/>
<path d="M13.2601 22.3335C13.2601 21.4533 13.399 20.6035 13.399 19.7201C13.399 19.0905 13.4685 18.4788 13.4685 17.848C13.4685 17.2292 13.6309 18.5308 13.6615 18.674C13.8235 19.4317 14.0971 20.1977 14.3371 20.9361C14.4562 21.3027 14.6223 21.7663 14.8698 22.0633C15.0891 22.3265 15.5495 22.6044 15.692 22.8893" stroke="#415EFF" stroke-linecap="round"/>
<path d="M12.2873 25.2518C12.3538 25.4595 12.4438 26.5915 12.8432 26.6414C13.017 26.6632 13.4055 26.9406 13.538 27.0583C13.8113 27.3012 14.2858 27.1973 14.6343 27.1973C15.0489 27.1973 15.4892 27.0583 15.8657 27.0583C16.2259 27.0583 16.3513 26.8572 16.7034 27.0583C17.0711 27.2685 17.3454 27.5611 17.6723 27.8226C17.7678 27.8991 17.8642 28.0939 17.9849 28.1006C18.1922 28.1121 18.4027 28.1006 18.6103 28.1006C19.19 28.1006 19.4958 27.4057 19.9999 27.4057" stroke="#415EFF" stroke-linecap="round"/>
<path d="M14.5108 26.5025C14.1286 26.5025 13.7465 26.5025 13.3643 26.5025C13.0036 26.5025 13.284 26.496 13.5226 26.5179C14.4965 26.6072 15.319 27.0583 16.3173 27.0583" stroke="#415EFF" stroke-linecap="round"/>
<path d="M19.3051 26.9888C19.4361 27.1565 19.5873 27.3377 19.7915 27.4057" stroke="#415EFF" stroke-linecap="round"/>
<path d="M17.9849 27.4057C17.7092 27.3385 17.4934 27.0583 17.2206 27.0583" stroke="#415EFF" stroke-linecap="round"/>
<path d="M13.9549 22.0556C14.3151 21.2812 15.1983 21.0133 15.997 21.0133C16.5257 21.0133 15.7311 21.4606 15.5608 21.6309C15.1647 22.027 14.7577 22.228 14.2329 22.403" stroke="#415EFF" stroke-linecap="round"/>
<path d="M5.96437 17.7476C5.40557 17.6113 5.05141 16.8095 4.90669 16.2885C4.72213 15.624 4.6442 14.9694 4.6442 14.2734C4.6442 13.6249 4.6442 12.9764 4.6442 12.3279C4.6442 11.5527 4.79701 10.8691 4.97617 10.1199C5.34528 8.57635 6.15242 6.93796 7.35404 5.86985C7.64499 5.61122 8.29862 4.89323 8.70895 4.89323C8.9814 4.89323 9.28499 4.82375 9.57749 4.82375" stroke="#415EFF" stroke-linecap="round"/>
<path d="M8.18783 5.4491C7.00462 6.34056 5.59949 7.24491 4.81404 8.54495C4.43942 9.16502 4.42999 9.99078 4.29678 10.6835C4.21263 11.1211 3.96514 11.6237 3.94937 12.0654C3.92791 12.6661 3.89313 13.2757 3.87988 13.872C3.87531 14.0776 3.838 14.3525 3.94937 14.5359C4.02028 14.6527 4.08833 14.6843 4.08833 14.8293" stroke="#415EFF" stroke-linecap="round"/>
<path d="M10.4113 3.92047C11.177 3.83039 11.9192 3.76129 12.6347 4.05944" stroke="#415EFF" stroke-linecap="round"/>
<path d="M15.9699 4.47633C16.4241 4.66645 16.8837 4.87586 17.3287 5.08624C17.5895 5.20954 17.8499 5.24871 18.0892 5.41435C18.5459 5.73057 19.0839 5.86801 19.4981 6.26745C20.3088 7.04915 21.2212 7.87215 21.5247 8.98501C21.7482 9.80454 21.8973 10.5868 21.876 11.4401C21.8494 12.5039 21.3909 13.4345 21.0113 14.4008C20.6869 15.2267 20.1806 15.9252 19.7761 16.7054C19.4784 17.2794 19.069 17.9837 18.6103 18.4424" stroke="#415EFF" stroke-linecap="round"/>
<path d="M11.1061 3.36461C10.4119 3.46874 9.94993 3.72947 9.34588 4.0826C9.14388 4.2007 8.61377 4.31026 8.53525 4.54582" stroke="#415EFF" stroke-linecap="round"/>
<path d="M8.11834 3.71202C7.58913 3.85801 6.81119 4.03917 6.48549 4.54582C6.29193 4.84691 5.92358 5.07298 5.68643 5.31013" stroke="#415EFF" stroke-linecap="round"/>
<path d="M9.71643 4.40686C10.4429 4.25118 11.2809 4.14808 12.0248 4.28333C12.8477 4.43294 13.6944 4.44934 14.5108 4.63075C15.0274 4.74555 15.4874 4.77551 15.9699 5.01676C16.244 5.15383 16.8754 5.38414 17.0122 5.65755" stroke="#415EFF" stroke-linecap="round"/>
</svg>
